<svg xmlns="http://www.w3.org/2000/svg" id="katman_1" version="1.1" viewBox="0 443.1 1080 193.9">
  <!-- Generator: Adobe Illustrator 30.3.0, SVG Export Plug-In . SVG Version: 2.1.3 Build 182)  -->
  <defs>
    <style>
      .st0 {
        fill: #888c91;
      }

      .st1 {
        fill: #2f3135;
      }
    </style>
  </defs>
  <g>
    <g>
      <polygon class="st1" points="454.6 443.1 402.9 490.9 351.2 443.1 326 443.1 393.1 505.2 393.1 547.7 412.9 547.7 412.9 505.2 479.6 443.1 454.6 443.1"/>
      <polygon class="st1" points="516.6 443.1 447.1 547.7 469.1 547.7 523.9 463.4 566.5 529.9 520.4 512 511.8 523.4 577.8 547.7 600.1 547.7 531 443.1 516.6 443.1"/>
      <polygon class="st1" points="690.3 528.5 628.2 443.1 609.8 443.1 609.8 547.7 628.1 547.7 628.1 474.6 681.4 547.7 697.6 547.7 750.8 474.4 750.8 547.7 769.1 547.7 769.1 443.1 752.2 443.1 690.3 528.5"/>
      <polygon class="st1" points="848.3 443.1 778.8 547.7 800.8 547.7 855.6 463.4 898 529.7 852.5 512 844 523.4 909.4 547.5 909.5 547.7 931.8 547.7 862.7 443.1 848.3 443.1"/>
      <polygon class="st1" points="1062.8 443.1 1062.8 520.8 958.6 443.1 941.5 443.1 941.5 547.7 958.7 547.7 958.7 466.3 1070.3 547.7 1080 547.7 1080 443.1 1062.8 443.1"/>
    </g>
    <g>
      <path class="st0" d="M394.1,636.9l-28.1-43.9-28.6,43.9h-11.5l36.2-54.5h7.5l36,54.5h-11.6.1Z"/>
      <path class="st0" d="M445.3,636.9v-8.1h47.4c4.6,0,6.8-1.8,6.8-5v-6.9c0-3.3-2.2-5-6.8-5h-32.1c-12.4,0-17.1-5.3-17.1-13.2v-3.2c0-7.8,4.7-13.2,17.1-13.2h46.2v8.1h-46.2c-4.6,0-6.8,1.8-6.8,5v3.3c0,3.3,2.2,5,6.8,5h32.1c12.4,0,17.1,5.3,17.1,13.2v6.7c0,7.8-4.7,13.2-17.1,13.2h-47.4Z"/>
      <path class="st0" d="M615.8,636.9l-28.1-43.9-28.6,43.9h-11.5l36.2-54.5h7.5l36,54.5h-11.6,0Z"/>
      <path class="st0" d="M736.8,636.9l-58.2-42.4v42.4h-9v-54.5h8.9l54.3,40.5v-40.5h9v54.5h-5Z"/>
      <path class="st0" d="M789.7,636.9v-8.1h47.4c4.6,0,6.8-1.8,6.8-5v-6.9c0-3.3-2.2-5-6.8-5h-32.1c-12.4,0-17.1-5.3-17.1-13.2v-3.2c0-7.8,4.7-13.2,17.1-13.2h46.2v8.1h-46.2c-4.6,0-6.8,1.8-6.8,5v3.3c0,3.3,2.2,5,6.8,5h32.1c12.4,0,17.1,5.3,17.1,13.2v6.7c0,7.8-4.7,13.2-17.1,13.2h-47.4Z"/>
      <path class="st0" d="M916.6,636.9c-12.4,0-17.1-5.3-17.1-13.2v-28.2c0-7.8,4.7-13.2,17.1-13.2h36c12.4,0,17.1,5.3,17.1,13.2v28.2c0,7.8-4.7,13.2-17.1,13.2h-36ZM959.4,595.5c0-3.3-2.2-5-6.8-5h-36c-4.6,0-6.8,1.8-6.8,5v28.3c0,3.3,2.2,5,6.8,5h36c4.6,0,6.8-1.8,6.8-5v-28.3ZM918.8,575.9v-10.1h10.6v10.1h-10.6ZM939.8,575.9v-10.1h10.6v10.1h-10.6Z"/>
      <path class="st0" d="M1068.4,636.9l-12.8-24.3h-28.7v24.3h-10.3v-54.5h46.3c12.4,0,17.1,5.3,17.1,13.2v3.9c0,7-3.8,12.1-13.5,13l12.9,24.5h-11ZM1069.7,595.5c0-3.3-2.2-5-6.8-5h-36v14.1h36c4.6,0,6.8-1.8,6.8-5v-4h0Z"/>
    </g>
  </g>
  <path class="st1" d="M393.1,540"/>
  <g>
    <g>
      <path class="st1" d="M140,512.6c25.1-23.2,50.2-46.3,75.2-69.5h-35.1c-13.4,12.3-26.8,24.7-40.2,37-13.4-12.3-26.8-24.7-40.2-37h-35.1c25.1,23.2,50.2,46.3,75.2,69.5h.2Z"/>
      <g>
        <path class="st1" d="M236.3,443.1h43.6l-104.4,96.6v75.1l-11.6,9.1h0c-5.6,4.4-11.1,8.7-16.7,13.1v-111.3c29.7-27.5,59.4-55,89.1-82.5h0Z"/>
        <path class="st1" d="M43.6,443.1H0l104.4,96.6v75.1l11.6,9.1h0c5.6,4.4,11.1,8.7,16.7,13.1v-111.3c-29.7-27.5-59.4-55-89.1-82.5h0Z"/>
      </g>
    </g>
    <polygon class="st0" points="0 443.1 132.7 525.6 43.6 443.1 0 443.1"/>
    <polygon class="st0" points="147.2 525.6 236.3 443.1 279.9 443.1 147.2 525.6"/>
  </g>
</svg>