<svg xmlns="http://www.w3.org/2000/svg" id="katman_1" version="1.1" viewBox="0 105.2 1080 869.7">
  <!-- Generator: Adobe Illustrator 30.3.0, SVG Export Plug-In . SVG Version: 2.1.3 Build 182)  -->
  <defs>
    <style>
      .st0 {
        fill: #888c91;
      }

      .st1 {
        fill: #2f3135;
      }
    </style>
  </defs>
  <g>
    <g>
      <polygon class="st1" points="184.3 697.1 110.2 765.7 36.2 697.1 0 697.1 96.2 786.1 96.2 847 124.5 847 124.5 786.1 220.1 697.1 184.3 697.1"/>
      <polygon class="st1" points="273.1 697.1 173.5 847 205 847 283.5 726.3 344.5 821.5 278.4 795.8 266.2 812.2 360.8 847 392.7 847 293.7 697.1 273.1 697.1"/>
      <polygon class="st1" points="521.9 819.5 432.9 697.1 406.5 697.1 406.5 847 432.7 847 432.7 742.3 509.1 847 532.3 847 608.5 742 608.5 847 634.7 847 634.7 697.1 610.4 697.1 521.9 819.5"/>
      <polygon class="st1" points="748.2 697.1 648.6 847 680.1 847 758.6 726.3 819.3 821.2 754.2 795.8 741.9 812.2 835.7 846.6 835.9 847 867.8 847 768.8 697.1 748.2 697.1"/>
      <polygon class="st1" points="1055.3 697.1 1055.3 808.4 906.1 697.1 881.6 697.1 881.6 847 906.3 847 906.3 730.3 1066.2 847 1080 847 1080 697.1 1055.3 697.1"/>
    </g>
    <g>
      <path class="st0" d="M97.6,974.8l-40.3-62.9-40.9,62.9H0l51.9-78.1h10.8l51.6,78.1h-16.7Z"/>
      <path class="st0" d="M170.9,974.8v-11.5h67.9c6.7,0,9.8-2.6,9.8-7.2v-9.9c0-4.7-3.1-7.2-9.8-7.2h-45.9c-17.7,0-24.5-7.7-24.5-18.9v-4.5c0-11.2,6.8-18.9,24.5-18.9h66.1v11.5h-66.1c-6.7,0-9.8,2.6-9.8,7.2v4.8c0,4.7,3.1,7.2,9.8,7.2h45.9c17.7,0,24.5,7.7,24.5,18.9v9.7c0,11.2-6.8,18.9-24.5,18.9h-67.9Z"/>
      <path class="st0" d="M415.2,974.8l-40.3-62.9-40.9,62.9h-16.4l51.9-78.1h10.8l51.6,78.1h-16.7Z"/>
      <path class="st0" d="M588.4,974.8l-83.3-60.8v60.8h-12.9v-78.1h12.8l77.8,58v-58h12.9v78.1h-7.3Z"/>
      <path class="st0" d="M664.3,974.8v-11.5h67.9c6.7,0,9.8-2.6,9.8-7.2v-9.9c0-4.7-3.1-7.2-9.8-7.2h-45.9c-17.7,0-24.5-7.7-24.5-18.9v-4.5c0-11.2,6.8-18.9,24.5-18.9h66.1v11.5h-66.1c-6.7,0-9.8,2.6-9.8,7.2v4.8c0,4.7,3.1,7.2,9.8,7.2h45.9c17.7,0,24.5,7.7,24.5,18.9v9.7c0,11.2-6.8,18.9-24.5,18.9h-67.9Z"/>
      <path class="st0" d="M846,974.8c-17.8,0-24.5-7.7-24.5-18.9v-40.4c0-11.2,6.8-18.9,24.5-18.9h51.6c17.7,0,24.5,7.7,24.5,18.9v40.4c0,11.2-6.8,18.9-24.5,18.9h-51.6ZM907.3,915.4c0-4.7-3.1-7.2-9.8-7.2h-51.6c-6.7,0-9.8,2.6-9.8,7.2v40.6c0,4.7,3.1,7.2,9.8,7.2h51.6c6.7,0,9.8-2.6,9.8-7.2v-40.6ZM849.1,887.4v-14.4h15.2v14.4h-15.2ZM879.2,887.4v-14.4h15.2v14.4h-15.2Z"/>
      <path class="st0" d="M1063.4,974.8l-18.3-34.8h-41.2v34.8h-14.8v-78.1h66.3c17.7,0,24.5,7.7,24.5,18.9v5.5c0,10.1-5.4,17.3-19.3,18.6l18.4,35.1h-15.8.2ZM1065.2,915.4c0-4.7-3.1-7.2-9.8-7.2h-51.6v20.2h51.6c6.7,0,9.8-2.6,9.8-7.2v-5.8Z"/>
    </g>
  </g>
  <path class="st1" d="M554.4,633.1"/>
  <g>
    <g>
      <path class="st1" d="M540,284c64.5-59.6,129-119.2,193.5-178.8h-90.2c-34.4,31.7-68.9,63.5-103.3,95.2-34.4-31.7-68.9-63.5-103.3-95.2h-90.2c64.5,59.6,129,119.2,193.5,178.8h0Z"/>
      <g>
        <path class="st1" d="M787.8,105.3h112.2l-268.6,248.4v193l-29.9,23.4h0c-14.3,11.2-28.6,22.4-42.9,33.7v-286.3c76.4-70.7,152.7-141.4,229.1-212.2h.1Z"/>
        <path class="st1" d="M292.2,105.3h-112.2l268.6,248.4v193l29.9,23.4h0c14.3,11.2,28.6,22.4,42.9,33.7v-286.3c-76.4-70.7-152.7-141.4-229.1-212.2h-.1Z"/>
      </g>
    </g>
    <polygon class="st0" points="180 105.3 521.4 317.5 292.2 105.3 180 105.3"/>
    <polygon class="st0" points="558.6 317.5 787.8 105.3 900 105.3 558.6 317.5"/>
  </g>
</svg>