<svg xmlns="http://www.w3.org/2000/svg" width="220" height="68" fill="none"><g fill="#000" clip-path="url(#a)"><path d="m163.877 33.847-3.588 6.216h3.338l1.919-3.325 1.92 3.325h3.338l-3.588-6.216h-3.339Zm4.84-.867 3.589 6.215 1.669-2.89-1.919-3.325h3.839l1.669-2.891h-7.176l-1.67 2.89h-.001Zm1.67-4.626h7.176l-1.669-2.89h-3.839l1.919-3.326-1.669-2.89-3.589 6.215 1.669 2.89h.002Zm-3.171-3.758 3.588-6.216h-3.338l-1.92 3.325-1.92-3.325h-3.338l3.588 6.216h3.34Zm-4.841.867-3.589-6.216-1.669 2.891 1.919 3.325h-3.839l-1.67 2.89h7.177l1.669-2.89h.002Zm-5.726 6.539-2.821 4.885-2.821-4.885h-4.081l4.862 8.42-3.969 6.874.021-.02h4.072l8.819-15.274h-4.082ZM67.184 44.194v-6.767c0-1.647-.572-2.417-1.91-2.417-1.472 0-2.088.813-2.088 2.46v6.724H59.54V32h3.405v1.296h.043c.769-1.252 1.846-1.713 3.318-1.713 2.197 0 4.526 1.23 4.526 4.833v7.777h-3.648Zm35.747.374c-3.712 0-6.569-2.746-6.569-6.482 0-3.735 2.922-6.481 6.569-6.481s6.569 2.746 6.569 6.436-2.9 6.526-6.569 6.526Zm2.922-6.482c0-1.625-1.23-3.076-2.944-3.076-1.603 0-2.9 1.406-2.9 3.076 0 1.67 1.275 3.076 2.922 3.076 1.647 0 2.922-1.45 2.922-3.076Zm17.816 6.482c-3.712 0-6.569-2.746-6.569-6.482 0-3.735 2.922-6.481 6.569-6.481s6.569 2.746 6.569 6.436-2.9 6.526-6.569 6.526Zm2.921-6.482c0-1.625-1.23-3.076-2.944-3.076-1.603 0-2.9 1.406-2.9 3.076 0 1.67 1.275 3.076 2.922 3.076 1.647 0 2.922-1.45 2.922-3.076Zm15.199 4.68c-.548 1.164-1.911 1.823-3.405 1.823-3.559 0-6.129-2.746-6.129-6.414 0-3.669 2.615-6.569 6.129-6.569 1.582 0 2.79.594 3.383 1.538h.044v-1.142h3.647v10.896c0 1.648-.22 2.9-.659 3.734-.879 1.692-3.273 2.988-6.327 2.988-3.449 0-5.69-1.956-5.997-4.284h4.218c.418.9 1.23 1.208 2.131 1.208 1.845 0 2.965-1.208 2.965-3.427v-.352.001Zm.023-4.613c0-1.78-1.208-3.142-2.987-3.142-1.626 0-2.922 1.362-2.922 3.032 0 1.669 1.164 3.141 2.922 3.141 1.757 0 2.987-1.274 2.987-3.031ZM78.618 27.938h-3.647v4.064h-2.43v2.768h2.43v9.424h3.647V34.77h2.431v-2.768h-2.431v-4.065Zm11.388 3.646c-1.45 0-2.636.594-3.163 1.582v-5.228h-3.647v16.256h3.647V37.34c0-1.517.659-2.329 2.043-2.329 1.384 0 1.955.901 1.955 2.483v6.7h3.647v-7.668c0-3.185-1.691-4.943-4.482-4.943v.001Zm25.175-3.646h-3.647v16.256h3.647V27.937Zm-66.729 0-6.016 16.256h4.46l3.347-10.16h.064l3.348 10.16h4.46l-6.017-16.257h-3.646Z"/></g><defs><clipPath id="a"><path fill="#fff" d="M42.436 18.38h135.129v31.24H42.435z"/></clipPath></defs></svg>