<svg xmlns="http://www.w3.org/2000/svg" width="220" height="68" fill="none"><path fill="#000" d="M75.143 24.685c.202-.092.16-.445-.056-.493-3.227-.722-5.738-3.604-6.277-7.218-.036-.24-.455-.296-.542-.071-1.389 4.318-4.396 7.698-8.396 9.346-.194.093-.155.42.054.472 3.15.763 5.597 3.593 6.145 7.136.036.234.42.287.508.068 1.601-4.518 4.668-7.913 8.564-9.24Zm17.075 21.033h-3.4V30.545h3.4v15.173ZM90.475 28.47c-1.192 0-2.092-.936-2.092-2.134 0-1.17.9-2.105 2.092-2.105 1.249 0 2.179.935 2.179 2.105 0 1.198-.93 2.134-2.18 2.134Z"/><path fill="#000" fill-rule="evenodd" d="M78.892 46.01c-4.127 0-7.09-3.332-7.09-7.893 0-4.56 2.963-7.864 7.09-7.864 1.917 0 3.748.965 4.562 2.222v-8.127h3.37v21.37h-3.37V43.76c-.814 1.257-2.645 2.25-4.562 2.25Zm.552-2.952c2.179 0 3.806-1.696 4.01-4.005v-1.93c-.204-2.31-1.831-3.917-4.01-3.917-2.441 0-4.184 1.959-4.184 4.882 0 2.923 1.743 4.97 4.184 4.97Z" clip-rule="evenodd"/><path fill="#000" d="M108.81 45.718h3.399v-21.37h-3.399v21.37Z"/><path fill="#000" fill-rule="evenodd" d="M114.278 51.185v-20.64h3.4v1.96c.784-1.258 2.615-2.252 4.62-2.252 4.068 0 7.031 3.333 7.031 7.893 0 4.561-2.963 7.865-7.089 7.865-1.947 0-3.778-.994-4.562-2.251v7.425h-3.4Zm7.41-8.127c2.411 0 4.184-1.959 4.184-4.882 0-2.924-1.773-4.97-4.126-4.97-2.266 0-3.865 1.695-4.068 4.005v1.93c.174 2.31 1.802 3.917 4.01 3.917Zm23.503-4.941c0 4.56 2.964 7.894 7.09 7.894 1.918 0 3.748-.994 4.562-2.251v1.958h3.37v-21.37h-3.37v8.127c-.814-1.257-2.644-2.222-4.562-2.222-4.126 0-7.09 3.304-7.09 7.864Zm11.652.936c-.204 2.31-1.831 4.005-4.01 4.005-2.441 0-4.184-2.047-4.184-4.97 0-2.923 1.743-4.882 4.184-4.882 2.179 0 3.806 1.608 4.01 3.917v1.93Zm-26.374 2.543c0 2.544 2.208 4.415 5.259 4.415 1.627 0 3.313-.614 4.416-2.28v1.987h3.371v-9.823c0-3.537-2.557-5.642-6.305-5.642-3.67 0-5.78 2.046-6.494 4.327l3.224.425c.469-1.261 1.532-2.12 3.27-2.12 1.685 0 2.934.993 2.934 2.806v.526l-4.387.643c-3.313.468-5.288 2.076-5.288 4.736Zm5.84 1.871c-1.453 0-2.383-.877-2.383-2.017 0-1.228.843-1.9 2.383-2.163l3.835-.673v1.842c-.522 1.579-1.801 3.011-3.835 3.011ZM99.025 46.01c-3.05 0-5.259-1.87-5.259-4.414 0-2.66 1.976-4.268 5.288-4.736l4.388-.643v-.526c0-1.813-1.25-2.807-2.935-2.807-1.738 0-2.801.86-3.27 2.12l-3.224-.424c.714-2.281 2.824-4.327 6.494-4.327 3.748 0 6.305 2.105 6.305 5.642v9.823h-3.37V43.73c-1.104 1.667-2.79 2.28-4.417 2.28Zm-1.801-4.56c0 1.14.93 2.017 2.382 2.017 2.035 0 3.313-1.432 3.836-3.011v-1.842l-3.836.672c-1.54.264-2.382.936-2.382 2.164Z" clip-rule="evenodd"/></svg>