<svg xmlns="http://www.w3.org/2000/svg" width="220" height="68" fill="none"><g clip-path="url(#a)"><path fill="#121211" d="M46.45 38.126c0 1.997-1.665 3.67-3.74 3.642-1.148 0-2.323-.54-3.033-1.565l-.764-1.079c-.355 1.565-1.721 2.644-3.47 2.644a3.614 3.614 0 0 1-3.632-3.615v-9.038a3.597 3.597 0 0 1 3.633-3.615c1.775 0 3.168 1.16 3.496 2.752l.874-1.187a3.769 3.769 0 0 1 3.004-1.538c1.967 0 3.633 1.538 3.633 3.534 0 .756-.219 1.511-.683 2.131l-1.748 2.402 1.748 2.4c.464.648.683 1.377.683 2.132ZM51.48 25.5c2.191 0 3.944 1.784 3.917 3.892v8.485c0 2.108-1.726 3.892-3.944 3.892-2.165 0-3.918-1.757-3.918-3.892v-8.486c0-2.107 1.753-3.891 3.945-3.891Zm19.1 11.797c0 2.613-2.184 4.472-5.688 4.472-4.69 0-8.14-3.475-8.14-8.135s3.45-8.134 8.14-8.134c3.504 0 5.687 1.858 5.687 4.471 0 1.75-.862 2.936-2.587 3.663 1.725.728 2.587 1.94 2.587 3.663Zm15.994.83c0 1.995-1.669 3.668-3.721 3.641-1.15 0-2.326-.54-3.038-1.565l-.766-1.079c-.356 1.565-1.724 2.644-3.475 2.644a3.618 3.618 0 0 1-3.64-3.615v-9.038c0-1.996 1.588-3.615 3.64-3.615 1.779 0 3.174 1.16 3.503 2.752l.848-1.187a3.778 3.778 0 0 1 3.01-1.538c1.97 0 3.64 1.538 3.64 3.534a3.54 3.54 0 0 1-.685 2.131l-1.751 2.402 1.751 2.4c.466.648.684 1.377.684 2.132Zm13.827-1.365c0 3.237-2.5 5.278-6.71 5.278-4.293 0-6.303-1.47-6.303-3.863 0-1.66 1.277-2.72 3.097-2.72h.027l-.978-.898c-1.223-1.116-2.065-2.23-2.065-3.863 0-3.183 2.337-5.196 6.33-5.196 4.075 0 6.004 1.442 6.004 3.863 0 1.442-.978 2.421-2.445 2.639l1.005.897c1.223 1.088 2.038 2.231 2.038 3.863Zm11.055 1.617c0 2.007-1.712 3.66-3.912 3.66-2.119 0-3.83-1.653-3.83-3.66v-5.612c-1.82-.109-3.313-1.6-3.313-3.498 0-1.98 1.575-3.498 3.504-3.498h7.36a3.492 3.492 0 0 1 3.504 3.498c0 1.898-1.494 3.416-3.313 3.498v5.612Zm9.527.562c-.925 1.912-2.231 2.828-3.809 2.828-2.856 0-4.924-2.613-3.645-5.549l3.346-7.757c.844-1.913 2.067-2.963 4.135-2.963 2.095 0 3.319 1.05 4.135 2.963l3.346 7.757c1.251 2.936-.789 5.549-3.673 5.549-1.604 0-2.91-.916-3.835-2.828Zm8.968-9.13c0-2.657 1.421-4.04 3.962-4.04h4.726c2.869 0 5.109 2.17 5.109 4.962 0 1.518-.628 2.766-1.667 3.552l1.421 2.25a3.49 3.49 0 0 1 .546 1.926 3.549 3.549 0 0 1-3.579 3.579 3.622 3.622 0 0 1-3.114-1.763l-.383-.678c-.464 1.438-1.748 2.44-3.387 2.44-1.995 0-3.634-1.68-3.634-3.714v-8.514Zm25.43 8.568c0 2.007-1.681 3.66-3.931 3.66-2.115 0-3.823-1.653-3.823-3.66v-5.612c-1.817-.109-3.308-1.6-3.308-3.498a3.472 3.472 0 0 1 3.498-3.498h7.374a3.488 3.488 0 0 1 3.497 3.498c0 1.898-1.491 3.416-3.307 3.498v5.612Zm17.133.543c0 1.75-1.4 3.145-3.097 3.117h-5.658c-2.586 0-3.986-1.367-3.986-4.046v-8.175c0-2.652 1.4-4.047 3.986-4.047h5.658c1.697 0 3.097 1.395 3.097 3.144 0 1.586-.969 2.735-2.37 3.008.647.41.997 1.094.997 1.996 0 .902-.378 1.586-.997 1.996 1.374.273 2.37 1.449 2.37 3.007Zm1.085-9.11c0-2.658 1.393-4.04 3.961-4.04h4.727c2.868 0 5.109 2.168 5.109 4.961 0 1.518-.629 2.766-1.667 3.552l1.421 2.25c.382.597.546 1.248.546 1.926a3.549 3.549 0 0 1-3.579 3.579 3.621 3.621 0 0 1-3.114-1.763l-.383-.678c-.464 1.438-1.748 2.44-3.387 2.44-1.995 0-3.634-1.68-3.634-3.714v-8.514Z"/></g><defs><clipPath id="a"><path fill="#fff" d="M31.811 25.5h156.377v17H31.811z"/></clipPath></defs></svg>