<svg xmlns="http://www.w3.org/2000/svg" width="220" height="68" fill="none"><path fill="#121211" d="M85.447 35.338c-.145-1.809-1.085-2.87-2.99-2.87-1.76 0-2.845 1.11-3.038 2.87h6.028Zm2.846.675c0 .579-.049 1.182-.145 1.663h-8.68c.312 1.448 1.542 2.34 3.856 2.34l.032-.001.025-.001a9.763 9.763 0 0 0 .658-.028c.06-.006.12-.013.179-.016a8.398 8.398 0 0 0 2.72-.75c.066-.032.134-.063.198-.096.17-.086.337-.18.5-.277h.074v2.441a8.377 8.377 0 0 1-4.354 1.212v-.007c-.058.002-.115.007-.174.007-4.366 0-6.753-2.484-6.753-6.1 0-3.883 2.46-6.44 6.028-6.44 3.57 0 5.836 2.532 5.836 6.053Zm-30.07 6.245h2.967l.554-10.392.12-2.822h.049l.628 2.822 2.41 10.392h3.714L71.1 31.866l.603-2.822h.048l.12 2.822.58 10.392h3.086L74.524 25.62h-4.918l-2.22 9.984-.481 2.531h-.048l-.507-2.531-2.218-9.983h-4.92l-.989 16.637Zm51.05.242c-2.773 0-4.342-1.279-4.342-4.172v-5.69h-3.327v6.052c0 .892.338 1.254 1.061 1.254.169 0 .361 0 .579-.048h.072v2.362c-.29.073-.868.145-1.301.145-1.64 0-2.654-.626-3.087-2.001-.868 1.35-2.242 2.098-3.954 2.098-3.063 0-5.547-2.387-5.547-6.294 0-3.858 2.484-6.245 5.547-6.245 1.517 0 2.773.578 3.64 1.64v-5.98h2.99v4.581h3.328v-2.87h2.99v2.87h3.208v2.436h-3.208v5.546c0 1.205.602 1.784 1.761 1.784.53 0 .891-.048 1.374-.169h.073v2.46a8.175 8.175 0 0 1-1.857.24ZM95.6 39.968c2.026 0 3.159-1.567 3.159-3.762 0-2.17-1.133-3.737-3.159-3.737-2.05 0-3.111 1.567-3.111 3.737 0 2.195 1.061 3.762 3.111 3.762Zm19.846-4.027c0-1.954 1.013-3.039 2.942-3.039.337 0 .699.048 1.036.146h.048v-2.799a3.383 3.383 0 0 0-1.182-.191c-1.446 0-2.411.892-2.965 2.338v-2.194h-2.87V42.26h2.991v-6.32Zm10.418 6.559c-3.786 0-6.344-2.749-6.344-6.27 0-3.52 2.558-6.27 6.344-6.27 3.76 0 6.317 2.75 6.317 6.27 0 3.521-2.557 6.27-6.317 6.27Zm0-2.58c2.145 0 3.254-1.567 3.254-3.69 0-2.122-1.109-3.689-3.254-3.689-2.099 0-3.281 1.567-3.281 3.69 0 2.122 1.182 3.689 3.281 3.689Zm10.906-4.389c0-1.856.94-3.062 2.676-3.062 1.712 0 2.509 1.133 2.509 3.062v6.728h2.989V35.41c0-2.894-1.494-5.45-4.749-5.45-1.736 0-2.894.868-3.546 2.17v-1.929h-2.87V42.26h2.991v-6.73Zm13.455-8.27a1.78 1.78 0 0 1-1.783 1.784c-.965 0-1.762-.82-1.762-1.785 0-.964.797-1.76 1.762-1.76a1.76 1.76 0 0 1 1.783 1.76Zm1.665 14.998a7.447 7.447 0 0 1-1.472.169c-2.29 0-3.52-1.206-3.52-3.424v-8.802h3.014v8.584c0 .796.385 1.182 1.206 1.182.192 0 .434-.025.699-.072h.073v2.363Zm.288-6.029c0-3.52 2.556-6.27 6.367-6.27 1.085 0 2.315.267 3.231.772v2.653h-.072c-.94-.554-1.881-.82-2.942-.82-2.292 0-3.521 1.567-3.521 3.666 0 2.098 1.229 3.665 3.521 3.665 1.061 0 2.002-.266 2.942-.82h.072v2.652c-.916.508-2.146.772-3.231.772-3.811 0-6.367-2.749-6.367-6.27Z"/></svg>