<svg xmlns="http://www.w3.org/2000/svg" width="220" height="68" fill="none"><path fill="#121211" d="M136.81 42.104c-3.755 0-6.089-2.175-6.089-5.682 0-3.64 2.153-5.903 5.621-5.903h.291c.435 0 1.034.014 1.852.116v-4.393h2.449v15.466s-2.327.396-4.124.396Zm-.022-9.657c-2.373 0-3.526 1.28-3.526 3.914 0 2.364 1.392 3.834 3.628 3.834.43 0 .923-.029 1.594-.086v-7.504a10.667 10.667 0 0 0-1.696-.158Zm-33.529 9.302-6.617-11.546-.002 11.546h-2.306V27.132h3.229l6.616 11.443-.003-11.443h2.337v14.617h-3.254Zm21.076.225c-1.114 0-2.276-.125-3.659-.39l-.149-.03v-2.041l.218.047c1.22.26 2.273.482 3.327.482.85 0 2.832-.133 2.832-1.386 0-1.05-1.369-1.314-2.469-1.524l-.07-.015a9.617 9.617 0 0 1-.562-.118c-1.614-.419-3.335-1.048-3.335-3.21 0-2.109 1.669-3.317 4.579-3.317 1.397 0 2.411.149 3.227.27l.395.059v1.982l-.21-.039c-.923-.17-2.004-.344-3.044-.344-1.155 0-2.527.217-2.527 1.245 0 .853 1.123 1.097 2.422 1.38 1.818.394 4.072.888 4.072 3.368 0 2.276-1.838 3.581-5.047 3.581Zm23.475 0c-2.535 0-4.883-.447-4.883-3.684 0-3.523 3.631-3.523 5.802-3.523.215 0 1.236.048 1.548.061-.002-1.976-.027-2.447-2.893-2.447-1.136 0-2.398.224-3.512.424l-.212.039v-1.952l.143-.03a18.88 18.88 0 0 1 3.806-.39c2.777 0 5.13.28 5.13 3.725v7.514l-.169.02a40.809 40.809 0 0 1-4.76.243Zm.858-5.463c-2.094 0-3.391.308-3.391 1.84 0 1.774 1.655 1.921 3.207 1.921.579 0 1.622-.075 1.94-.097v-3.603c-.448-.02-1.615-.061-1.756-.061Zm-35.226 5.463c-2.539 0-4.886-.447-4.886-3.684 0-3.523 3.631-3.523 5.8-3.523.217 0 1.239.048 1.553.061-.003-1.976-.031-2.447-2.896-2.447-1.137 0-2.399.224-3.513.424l-.213.039v-1.952l.147-.03a18.836 18.836 0 0 1 3.803-.39c2.777 0 5.13.28 5.13 3.725v7.514l-.169.02a40.776 40.776 0 0 1-4.756.243Zm.853-5.463c-2.092 0-3.386.308-3.386 1.84 0 1.774 1.652 1.921 3.204 1.921.582 0 1.624-.075 1.943-.097v-3.603a109.86 109.86 0 0 0-1.761-.061Z"/><mask id="a" width="11" height="18" x="154" y="29" maskUnits="userSpaceOnUse" style="mask-type:luminance"><path fill="#fff" d="M154.337 29.81H165v17.029h-10.663v-17.03Z"/></mask><g mask="url(#a)"><path fill="#121211" d="M162.492 46.716v-4.795c-.956.133-1.464.133-1.874.133-.97 0-2.048-.21-2.883-.562-1.868-.777-2.982-2.75-2.982-5.28 0-1.264.308-3.573 2.367-4.818 1.034-.617 2.254-.881 4.089-.881.656 0 1.543.05 2.399.1l1.392.072v14.92l-2.508 1.111Zm-1.466-14.274c-2.489 0-3.751 1.27-3.751 3.77 0 3.218 1.882 3.894 3.464 3.894.385 0 .818 0 1.777-.122v-7.472c-.751-.05-1.097-.07-1.49-.07Z"/></g><mask id="b" width="20" height="24" x="73" y="18" maskUnits="userSpaceOnUse" style="mask-type:luminance"><path fill="#fff" d="M73.449 18.467h19.158v23.404H73.449V18.467Z"/></mask><g mask="url(#b)"><path fill="#121211" d="m83.39 18.467-8.101 22.26a1.554 1.554 0 0 1-1.303 1.012v.01h8.564a1.55 1.55 0 0 0 1.459-1.022l8.104-22.26h-8.722Z"/></g><path fill="#121211" d="M73.286 41.411c.497 0 .932-.246 1.198-.62.028-.04.125-.176.194-.36l2.971-8.17-1.738-4.77a1.469 1.469 0 0 0-2.552-.282 1.65 1.65 0 0 0-.194.36l-2.972 8.166 1.747 4.79a1.467 1.467 0 0 0 1.346.886Z"/><mask id="c" width="20" height="25" x="55" y="25" maskUnits="userSpaceOnUse" style="mask-type:luminance"><path fill="#fff" d="M55 25.552h19.158v23.98H55v-23.98Z"/></mask><g mask="url(#c)"><path fill="#121211" d="M73.923 26.25h-8.659a1.55 1.55 0 0 0-1.46 1.023L55.7 49.53h8.723l8.102-22.258a1.552 1.552 0 0 1 1.397-1.02v-.004Z"/></g></svg>