<svg xmlns="http://www.w3.org/2000/svg" width="220" height="68" fill="none"><g clip-path="url(#a)"><path fill="#000" d="M103.335 29.366h-6.322a.01.01 0 0 0-.01.01V41.76a.238.238 0 0 1-.236.239h-3.054a.238.238 0 0 1-.236-.239V29.376a.01.01 0 0 0-.01-.01h-6.304a.238.238 0 0 1-.236-.238v-2.773c0-.131.106-.239.236-.239h16.172c.13 0 .236.108.236.239v2.773a.237.237 0 0 1-.236.238Zm44.912-3.25h-3.053a.238.238 0 0 0-.237.239V41.76c0 .132.106.239.237.239h3.053c.13 0 .237-.107.237-.239V26.355a.238.238 0 0 0-.237-.239Zm24.677 15.498a.22.22 0 0 1-.143.386h-4.703a.22.22 0 0 1-.143-.054l-5.167-4.501a.219.219 0 0 1 0-.331l2.351-2.05a.216.216 0 0 1 .285 0l7.52 6.55Zm-7.803-8.562a.222.222 0 0 0 .144.053c.05 0 .101-.018.143-.053l7.517-6.55a.22.22 0 0 0-.143-.387h-4.703a.22.22 0 0 0-.143.054l-5.167 4.501a.22.22 0 0 0 0 .332l2.352 2.05Zm-.984 1.006a.215.215 0 0 0-.076-.165l-8.863-7.723a.216.216 0 0 0-.143-.054h-4.703a.22.22 0 0 0-.143.386l8.664 7.549c.005.004.005.01 0 .015l-8.664 7.549a.22.22 0 0 0 .143.386h4.703a.22.22 0 0 0 .143-.054l8.863-7.722a.221.221 0 0 0 .076-.167ZM50.527 31.28c0-.008.01-.013.015-.008.464.418 11.02 9.933 11.528 10.336.45.355.969.575 1.646.475a2.112 2.112 0 0 0 1.838-2.127v-13.6a.238.238 0 0 0-.236-.239h-3.054a.238.238 0 0 0-.237.239v10.471c0 .009-.01.014-.015.009-.464-.418-11.019-9.934-11.528-10.336-.45-.355-.969-.575-1.645-.475A2.113 2.113 0 0 0 47 28.15v13.61c0 .13.106.238.237.238h3.053a.24.24 0 0 0 .237-.239V31.28Zm77.514 0c0-.008.01-.013.016-.008.464.418 11.018 9.933 11.527 10.336.45.355.969.575 1.646.475a2.113 2.113 0 0 0 1.839-2.127v-13.6a.239.239 0 0 0-.237-.239h-3.054a.238.238 0 0 0-.236.239v10.471c0 .009-.01.014-.016.009-.464-.418-11.019-9.934-11.527-10.336-.45-.355-.969-.575-1.646-.475a2.113 2.113 0 0 0-1.839 2.127v13.61c0 .13.107.238.237.238h3.054c.13 0 .236-.108.236-.239V31.28ZM77.256 42.314c1.902-.005 4.022-.113 5.324-.886 1.732-1.03 2.574-2.459 2.574-4.368l.002-10.705a.238.238 0 0 0-.237-.239h-3.083a.238.238 0 0 0-.237.239l-.001 10.497c-.03 2.089-2.6 2.11-4.456 2.11h-1.686c-1.855 0-4.425-.02-4.456-2.11V26.355a.238.238 0 0 0-.237-.239h-3.084a.238.238 0 0 0-.237.239l.002 10.705c0 1.91.842 3.339 2.574 4.368 1.302.773 3.422.883 5.325.886h1.913Zm45.804-.673a.23.23 0 0 1 .017.236.224.224 0 0 1-.199.123h-3.771a.232.232 0 0 1-.19-.1l-2.2-3.166c-.002-.003-.004-.005-.008-.005h-11.306c-.004 0-.006.001-.008.005l-2.208 3.17a.222.222 0 0 1-.182.096h-3.771a.223.223 0 0 1-.199-.123.232.232 0 0 1 .017-.236s9.589-13.78 10.181-14.604c.591-.823 1.186-1.037 1.828-1.037.706 0 1.251.265 1.777.974l10.222 14.667Zm-8.639-6.177-3.356-4.783c-.003-.006-.011-.006-.016 0l-3.357 4.783c-.004.007 0 .015.009.015h6.712c.008 0 .013-.01.008-.015Z"/></g><defs><clipPath id="a"><path fill="#fff" d="M47 26h126v16H47z"/></clipPath></defs></svg>