<svg xmlns="http://www.w3.org/2000/svg" width="220" height="68" fill="none"><mask id="a" width="126" height="26" x="47" y="21" maskUnits="userSpaceOnUse" style="mask-type:luminance"><path fill="#fff" d="M172.5 21.042h-125v25.916h125V21.042Z"/></mask><g fill="#121211" mask="url(#a)"><path d="M64.465 39.257c3.364-1.947 6.392-5.25 7.341-7.606.277-1.946.325-2.198.36-4.349 0-.3-.011-.577-.035-.853-.193 3.148-4.266 7.113-9.66 9.708-6.5 3.124-11.378 3.965-13.552 1.586.756 1.49 1.249 2.222 2.102 3.328 2.5 2.21 7.785 1.465 13.444-1.814Z"/><path d="M61.713 33.91c6.128-2.956 10.405-7.16 9.66-9.96-1.226-2.103-3.7-2.908-6.356-2.908-7.87 0-17.517 5.178-17.517 11.798 0 .854.192 1.803.529 2.8 1.79 2.379 7.268 1.37 13.684-1.73Zm-.516 9.371c-4.314 1.754-6.776 1.19-8.146.096l-.024-.012c2.114 2.103 4.517 3.592 6.632 3.592 3.7 0 8.759-4.481 11.15-11.438-1.358 2.512-4.254 5.6-9.612 7.762ZM86.82 30.198h-4v11.27h-2.535v-11.27h-4.037v-2.2h10.573v2.2Z"/><path d="M94.44 37.322h-7.088c.252 1.418 1.273 2.367 2.57 2.367.986 0 1.767-.445 2.247-1.178l1.887 1.13c-.962 1.285-2.535 2.054-4.133 2.054-2.632 0-4.926-2.09-4.926-5.094 0-3.004 2.27-5.07 4.805-5.07 3.328.012 4.962 2.655 4.638 5.79Zm-7.016-1.79h4.733c-.288-1.25-1.093-2.043-2.343-2.043-1.189.012-2.066.817-2.39 2.043Zm12.052 5.959c-.36.072-.745.096-1.094.096-1.694 0-2.439-.805-2.439-2.439v-11.15h2.367v10.826c0 .829.505.937 1.178.865v1.802h-.012Zm1.224-12.374c0-.745.649-1.37 1.405-1.37.733 0 1.382.613 1.382 1.37 0 .757-.649 1.37-1.382 1.37-.744 0-1.405-.625-1.405-1.37Zm.216 12.34v-9.612h2.367v9.611h-2.367Zm12.303-6.802v6.8h-2.21v-1.117c-.745.985-1.947 1.345-2.944 1.345-2.078 0-3.304-1.31-3.304-2.943 0-1.862 2.091-3.388 4.65-3.388.505 0 1.033.036 1.514.192v-.637c0-.961-.553-1.466-1.694-1.466-1.022 0-1.923.517-2.475 1.19l-1.67-1.214c.937-1.093 2.559-1.862 4.193-1.862 2.559 0 3.94 1.117 3.94 3.1Zm-2.294 3.088v-.42c-.385-.133-.793-.17-1.286-.17-1.73 0-2.619.698-2.619 1.539 0 .697.601 1.13 1.502 1.13 1.201 0 2.403-.71 2.403-2.08Zm6.608-3.016c0-4.061 2.98-7.029 6.705-7.029 1.826 0 3.436.697 4.589 1.85l-1.093 1.082a4.818 4.818 0 0 0-3.496-1.502c-2.848 0-5.023 2.343-5.023 5.61 0 3.269 2.175 5.612 5.023 5.612a4.872 4.872 0 0 0 3.676-1.694l1.13 1.057c-1.178 1.274-2.884 2.054-4.806 2.054-3.737 0-6.705-2.98-6.705-7.04Z"/><path d="M136.194 31.843h1.574l-3.809 9.48c-1.057 2.63-2.139 3.592-3.244 4.133l-.745-1.118c.841-.54 1.61-1.093 2.535-3.232l-3.784-9.263h1.658l2.919 7.437 2.896-7.437Zm9.489.001h1.466v9.864c0 2.282-1.959 3.652-4.17 3.652-1.789 0-3.423-.54-4.421-1.442l.925-1.08c.806.744 2.079 1.212 3.521 1.212 1.514 0 2.631-.864 2.631-2.402v-2.055c-.745 1.033-1.887 1.67-3.244 1.67-2.439 0-4.421-1.958-4.421-4.83 0-2.883 1.982-4.83 4.421-4.83 1.381 0 2.559.673 3.304 1.755v-1.514h-.012Zm-.06 4.601c0-2.054-1.369-3.52-3.148-3.52-1.658 0-2.943 1.37-2.943 3.52 0 2.115 1.285 3.496 2.943 3.496 1.79 0 3.148-1.441 3.148-3.496Zm11.151-1.982v6.992h-1.442V40.11c-.709 1.13-1.994 1.574-3.172 1.574-2.138 0-3.304-1.382-3.304-2.86 0-1.922 1.959-3.34 4.65-3.34.613 0 1.225.06 1.754.216v-.96c0-1.274-.697-1.9-2.114-1.9-1.214 0-2.187.553-2.824 1.419l-1.117-.805c.804-1.094 2.33-1.887 3.965-1.887 2.318-.012 3.604 1.106 3.604 2.896Zm-1.514 3.364v-.925c-.504-.156-1.033-.192-1.598-.192-1.994 0-3.304.805-3.304 2.054 0 .985.769 1.634 2.043 1.634 1.429 0 2.859-.865 2.859-2.571Zm7.99 3.4c-.516.252-1.093.36-1.766.36-1.37 0-2.187-.829-2.187-2.174v-6.38h-1.502v-1.19h1.502V29.02h1.562v2.823h2.139v1.19h-2.139v6.127c0 .71.265 1.094.937 1.094.421 0 .841-.12 1.178-.265l.276 1.238Zm9.109-4.362h-7.401c.121 2.115 1.442 3.557 3.208 3.557 1.129 0 2.114-.541 2.751-1.466l1.178.769c-.925 1.285-2.331 2.018-3.917 2.018-2.631 0-4.746-2.138-4.746-5.154 0-2.956 2.091-5.058 4.614-5.058 2.679.012 4.566 2.235 4.313 5.334Zm-7.317-1.213h5.804c-.217-1.73-1.322-2.812-2.812-2.812-1.514 0-2.679 1.106-2.992 2.812Z"/></g></svg>